<svg id="Layer_1" data-name="Layer 1" xmlns="http://www.w3.org/2000/svg" viewBox="0 0 57.13 9.34"><defs><style>.cls-1{fill:#fff;}</style></defs><path class="cls-1" d="M2.76,5.39c0,.81.45,1.48,1.15,1.48s1.2-.48,1.2-1.48V2.17C5.11.64,5.42.06,6.45.06S7.87.54,7.87,2.22V5.48a3.7,3.7,0,0,1-4,3.86A3.8,3.8,0,0,1,.6,7.74C.07,6.92,0,6.51,0,3.44V2.17C0,.78.29,0,1.25,0c1.13,0,1.51.5,1.51,2.13Z"/><path class="cls-1" d="M16.32,3.26c0,2.83-2.81,3.1-3.82,3.1a1.21,1.21,0,0,0-1.36,1.37A1.19,1.19,0,0,1,9.89,9.09c-1,0-1.25-.67-1.25-1.7V1.82c0-1,.43-1.53,1.51-1.53h2.59C14.76.29,16.32,1.08,16.32,3.26Zm-4,1.16c.72,0,1.42-.44,1.42-1a1.24,1.24,0,0,0-1.37-1.18c-.77,0-1.2.36-1.2.94C11.16,4,11.47,4.42,12.31,4.42Z"/><path class="cls-1" d="M20.23,5.79A5.22,5.22,0,0,1,17.76,5a2.31,2.31,0,0,1-1-2A2.7,2.7,0,0,1,17.62,1,3.85,3.85,0,0,1,20.3,0c1.85,0,3.46.86,3.46,1.68a1.26,1.26,0,0,1-1.35,1.15c-.65,0-1.2-.63-1.84-.63s-.89.17-.89.48.26.6.91.72a4.9,4.9,0,0,1,2.69.92,2.21,2.21,0,0,1,.93,1.91c0,1.44-1,3.07-3.91,3.07-2,0-3.62-.81-3.62-1.84,0-.58.7-1,1.3-1s1.15.68,2.32.68c.67,0,1.08-.32,1.08-.63S20.9,5.89,20.23,5.79Z"/><path class="cls-1" d="M26.72,3.5c0-.72-.24-1-1.15-1.22-.62-.17-.93-.5-.93-1,0-.67.5-1,1.51-1h3.62c1.1,0,1.56.34,1.56,1a1,1,0,0,1-.91,1c-.94.17-1.18.5-1.18,1.22V7.75c0,1.17-.55,1.56-1.2,1.56-.91,0-1.32-.5-1.32-1.58Z"/><path class="cls-1" d="M40,7.89c.22.6-.39,1.18-1.13,1.18a1.52,1.52,0,0,1-1.2-.53c-.79-.84-.89-.74-1.68-.77a2.67,2.67,0,0,0-1.15.15.87.87,0,0,0-.31.17s-.16.18-.51.5a1.66,1.66,0,0,1-1.15.48c-.69,0-1.08-.34-1.08-.89a1.34,1.34,0,0,1,.1-.62l2.3-6.12A1.59,1.59,0,0,1,35.71.27a1.72,1.72,0,0,1,1.8,1.29Zm-4.18-2.3a.45.45,0,0,0,.48-.5c0-.34-.21-.7-.45-.7s-.44.34-.44.67S35.54,5.59,35.78,5.59Z"/><path class="cls-1" d="M46.18,6.59a1.35,1.35,0,0,1,.75-.2,1.06,1.06,0,0,1,1.13.92c0,.91-1.66,2-3.12,2a4.41,4.41,0,0,1-4.51-4.56A4.79,4.79,0,0,1,41.51,1.5a4,4,0,0,1,3-1.41,3.86,3.86,0,0,1,2.16.48C47.41,1,48,1.67,48,2.05a1.07,1.07,0,0,1-1.13,1,1.1,1.1,0,0,1-.57-.14l-.67-.41A1.81,1.81,0,0,0,43,4.14c-.24,1.8.76,3,1.72,3A2.58,2.58,0,0,0,46.18,6.59Z"/><path class="cls-1" d="M55.76,2.42c-.6.65-.89.92-.89,1.4a1,1,0,0,0,.15.55C57,7.7,57.13,7.8,57.13,8.3s-.53,1-1.13,1a2,2,0,0,1-2-1c-1.14-1.82-1.27-2-1.58-2-.48,0-.77.53-.77,1.35,0,1.2-.6,1.65-1.49,1.65-1.29,0-1.48-1-1.48-2.13l0-5.33C48.73.63,49.24,0,50.22,0a1.24,1.24,0,0,1,1.41,1.15c.11.43.2.74.48.74.48,0,1.2-1.17,1.68-1.46A2.53,2.53,0,0,1,55.09,0c.48,0,1.73-.07,1.73.77C56.82,1.2,56.72,1.37,55.76,2.42Z"/></svg>