<svg id="Layer_1" data-name="Layer 1" xmlns="http://www.w3.org/2000/svg" viewBox="0 0 95.59 11.85"><defs><style>.cls-1{fill:#fff;}</style></defs><path class="cls-1" d="M0,.13H10.73c2.74,0,3.47,1.36,3.47,3.44v.74c0,1.55-.35,2.46-2,2.85v0c1,.19,1.93.66,1.93,2.56v2H10.6V10.33c0-1.22-.35-1.62-1.46-1.62H3.55v3H0Zm3.55,5.7H9.43c1,0,1.31-.39,1.31-1.22V4.23c0-1-.51-1.22-1.63-1.22H3.55Z"/><path class="cls-1" d="M16.61.13H29.29V2.82H20.16V4.68h8.65v2.4H20.16V8.93H29.5v2.79H16.61Z"/><path class="cls-1" d="M31.44,7.93H35c0,1.23.52,1.32,1.54,1.32h4.36c.75,0,1.52-.08,1.52-1s-.42-1.07-5-1.07c-5.35,0-5.95-.64-5.95-3.5,0-2.09.19-3.71,4.67-3.71h5c4.1,0,4.49,1.39,4.49,3.43v.36H42c0-.84-.09-1.2-1.73-1.2H36.35c-.8,0-1.34.28-1.34.9,0,1,.43,1,4.24,1,5.53,0,6.81.32,6.81,3.69,0,3.13-1.06,3.64-5.78,3.64H36c-3.23,0-4.53-.61-4.53-3.12Z"/><path class="cls-1" d="M47.41.13H61V3H56v8.71H52.4V3h-5Z"/><path class="cls-1" d="M62.25,4.2C62.25.8,64.16,0,67.36,0h5.7c3.2,0,5.11.8,5.11,4.2V7.65c0,3.4-1.91,4.2-5.11,4.2h-5.7c-3.2,0-5.11-.8-5.11-4.2ZM65.9,6.55c0,1.68.36,2.32,2,2.32h4.55c1.68,0,2-.64,2-2.32V5.3c0-1.44-.35-2.32-2.23-2.32H68.13c-1.87,0-2.23.88-2.23,2.32Z"/><path class="cls-1" d="M80.32.13h3.55V4.39h1.67L90,.13h4.84L88.58,5.8l7,5.92h-5L85.44,7.27H83.87v4.45H80.32Z"/></svg>