<svg id="Layer_1" data-name="Layer 1" xmlns="http://www.w3.org/2000/svg" viewBox="0 0 96.88 24.47"><defs><style>.cls-1{fill:#fff;}</style></defs><path class="cls-1" d="M31.29,9.58c0-1.76-1.69-3.6-4.62-3.6-3.28,0-6.89,2.42-7.44,7.25s2.45,7,5.5,7A8.09,8.09,0,0,0,31,17.49a2.76,2.76,0,0,0-3.56-.77,3.66,3.66,0,0,1-1.88.45c-1.18,0-2.38-.53-2.38-2.73,7.53-.74,8.1-3.12,8.1-4.86Zm-3.73.29c0,.54-.27,1.47-4.08,2,.8-2.86,2.34-3.08,3-3.08a1,1,0,0,1,1.05,1,.71.71,0,0,1,0,.14Zm-12.75.47-1.75,5.52L11.82,6.27c-2.76,0-4.24,2-5,4.06L4.68,15.87l-.3-5.49A4.52,4.52,0,0,0,0,6.28L2.28,20.16c2.88,0,4.44-2,5.26-4.06l1.8-4.72c0,.2,1.25,8.78,1.25,8.78,2.9,0,4.46-1.84,5.3-3.85L20,6.28c-2.86,0-4.37,2-5.15,4.06ZM41.93,6a5.49,5.49,0,0,0-4.3,2.4h0l1-8.34C36.28,0,34.35,2.07,34,5.15L32.2,20.05a4.52,4.52,0,0,0,3.59-1.41,4,4,0,0,0,3.29,1.63c4,0,6.75-4.67,6.75-9,0-4-2-5.26-3.89-5.26Zm-.37,7.16c-.42,2.44-1.78,4.1-3.08,4.1a2.67,2.67,0,0,1-1.88-.59A17.49,17.49,0,0,1,37.48,12C38,10.9,39.1,9.1,40.29,9.1s1.69,1.55,1.27,4ZM55.81,6.27H53V6.13c.19-1.83.62-2.8,2-2.95A1.51,1.51,0,0,0,56.59,2L56.93.08c-5.59,0-7.37,2.4-7.82,6.11v.08H49A2.56,2.56,0,0,0,47,8.62l-.06.48h1.88l-1.57,13-.49,2.34h.2c2.62-.1,4.3-2.18,4.67-5.2L52.81,9.1h.87a2.4,2.4,0,0,0,2-2.31ZM70.34,6a7.66,7.66,0,0,0-7.2,6.13c-.94,3.74.48,8.17,5.22,8.17s7.47-4.61,7.47-8.45S73.25,6,70.34,6Zm1.31,7c-.17,1.69-.92,4.27-3,4.27s-1.77-3-1.57-4.44S68.2,9.11,70,9.11c1.65,0,1.81,2,1.62,3.88Zm20.11-2.66L90,15.85c-.05-.43-1.23-9.59-1.23-9.59-2.76,0-4.24,2-5,4.05l-2.13,5.55c0-.4-.3-5.49-.3-5.49A4.53,4.53,0,0,0,77,6.27l2.26,13.88c2.89,0,4.45-2,5.26-4.06l1.8-4.72c0,.19,1.25,8.78,1.25,8.78,2.9,0,4.45-1.84,5.29-3.85l4.07-10c-2.85,0-4.36,2-5.13,4.06ZM58.45.08l-2.35,19-.48,2.35h.19c2.53,0,4.33-2.26,4.66-5.07L61.83,5.48c.41-3.33-1.57-5.4-3.38-5.4Z"/></svg>