<svg width="170" height="30" viewBox="0 0 170 30" fill="none" xmlns="http://www.w3.org/2000/svg">
<path d="M9.04401 16.3327H14.6628C17.2798 16.3327 16.9719 17.6873 18.2804 17.6873C19.5889 17.6873 19.6274 16.0618 19.6274 14.4363C19.6274 13.0429 19.5889 11.7657 18.2804 11.7657C16.9719 11.7657 17.3953 13.1978 14.6628 13.1978H9.04401V6.65693C9.04401 4.06383 9.27492 3.7155 12.9695 3.7155C15.8559 3.7155 17.5107 3.7929 19.512 6.07639C19.9738 6.57953 20.4356 7.12137 21.2053 7.12137C22.4368 7.12137 22.2444 5.76676 22.2059 4.954C22.0905 3.90901 22.052 1.89645 21.1283 1.2772C20.6665 0.967576 19.8968 0.967577 18.5883 0.967577H1.88577C1.0391 0.967577 0 1.2385 0 2.28348C0 2.98014 0.230911 3.32847 1.15455 3.59939C2.03971 3.83161 2.03971 4.37345 2.03971 5.88287V24.3829C2.03971 25.7376 1.96274 26.3568 0.962129 26.7825C0.423337 27.0535 0 27.2857 0 27.9823C0 29.0273 1.0391 29.2982 1.88577 29.2982H9.19795C10.0446 29.2982 11.0837 29.0273 11.0837 27.9823C11.0837 27.2857 10.391 26.8986 9.73674 26.5116C9.04401 26.1246 9.04401 25.6214 9.04401 24.3829V16.3327Z" fill="white"/>
<path d="M28.5605 8.16635C30.2923 8.16635 32.409 7.12137 32.409 5.10881C32.409 3.01884 30.5232 2.01256 28.6375 2.01256C26.7902 2.01256 24.9044 3.21236 24.9044 5.26362C24.9044 7.16007 26.8671 8.16635 28.5605 8.16635ZM26.059 24.0733C26.059 25.9698 26.059 26.4342 25.4817 26.8599C24.8659 27.1309 24.5195 27.4018 24.5195 28.0597C24.5195 29.2595 25.4817 29.2982 26.3283 29.2982H32.0626C32.9093 29.2982 33.8714 29.2595 33.8714 28.0597C33.8714 27.4018 33.5251 27.1309 32.9093 26.8599C32.332 26.4342 32.332 25.9698 32.332 24.0733V14.1653C32.332 12.5785 32.2935 10.3724 30.7541 10.3724C29.5611 10.3724 27.3674 11.1078 25.7126 11.5722C24.3656 11.9593 23.8653 12.2689 23.8653 12.9655C23.8653 13.5848 24.3656 13.7783 24.8274 14.0492C25.905 14.6685 26.059 14.9007 26.059 18.3453V24.0733Z" fill="white"/>
<path d="M42.4076 22.6413C52.1444 21.635 54.8768 18.8871 54.8768 16.0231C54.8768 11.9593 50.4125 10.3724 46.9873 10.3724C40.9837 10.3724 35.4033 14.2427 35.4033 20.7449C35.4033 26.4342 40.5218 29.8788 45.7558 29.8788C48.1419 29.8788 50.1431 29.4531 52.1444 28.2533C53.1835 27.6727 55.2617 26.0472 55.2617 24.6539C55.2617 24.0733 54.6844 23.6089 54.1456 23.6089C53.3759 23.6089 53.1065 23.9959 52.5677 24.4604C51.0283 25.8537 49.4504 26.7825 47.3722 26.7825C44.8707 26.7825 42.9464 25.0796 42.4076 22.6413ZM42.0613 20.0482C41.8688 17.339 43.3313 13.0816 46.564 13.0816C48.1034 13.0816 48.8731 14.1266 48.8731 15.5973C48.8731 18.8097 44.6013 19.8547 42.0613 20.0482Z" fill="white"/>
<path d="M58.9397 24.0733C58.9397 25.9698 58.9397 26.4342 57.9391 26.8599C57.3233 27.1309 56.977 27.4018 56.977 28.0597C56.977 29.2595 57.9391 29.2982 59.2091 29.2982H64.9434C66.2134 29.2982 67.1755 29.2595 67.1755 28.0597C67.1755 27.4018 66.8292 27.1309 66.2134 26.8599C65.2128 26.4342 65.2128 25.9698 65.2128 24.0733V3.7929C65.2128 2.20608 65.1743 0 63.6349 0C62.4418 0 60.2482 0.735359 58.5933 1.1998C57.2463 1.58683 56.746 1.89645 56.746 2.59311C56.746 3.21236 57.2463 3.40587 57.7082 3.67679C58.7858 4.29604 58.9397 4.52826 58.9397 7.97284V24.0733Z" fill="white"/>
<path d="M82.716 11.6496C81.2151 10.7982 79.9451 10.3724 78.2132 10.3724C72.5559 10.3724 68.3995 14.7459 68.3995 20.4352C68.3995 25.6602 72.0941 29.8788 77.3281 29.8788C79.6757 29.8788 81.6769 29.1047 82.9854 26.8987C82.9854 28.6403 82.9854 29.2982 84.9866 29.2982H88.9121C89.7973 29.2982 90.9903 29.2595 90.9903 28.0597C90.9903 27.4018 90.567 27.1309 90.0282 26.8599C89.143 26.4342 88.9891 25.9698 88.9891 23.9959V3.7929C88.9891 2.20608 88.9506 0 87.4112 0C86.2181 0 84.0245 0.735359 82.3696 1.1998C81.0226 1.58683 80.5223 1.89645 80.5223 2.59311C80.5223 3.21236 81.0227 3.40587 81.4845 3.67679C82.5621 4.29604 82.716 4.52826 82.716 7.97284V11.6496ZM82.716 22.4091C82.716 23.4154 82.6775 24.2668 82.1387 25.157C81.4845 26.1633 80.3684 26.7825 79.1754 26.7825C75.7887 26.7825 75.0575 22.8348 75.0575 20.1643C75.0575 17.4164 75.9426 13.1978 79.3678 13.1978C80.3299 13.1978 81.292 13.6235 81.9078 14.3588C82.639 15.2103 82.716 16.1779 82.716 17.2229V22.4091Z" fill="white"/>
<path d="M101.001 24.3829C101.001 25.7376 100.924 26.3568 99.9234 26.7825C99.3846 27.0535 98.9612 27.2857 98.9612 27.9823C98.9612 29.0273 100 29.2982 100.847 29.2982H108.159C109.006 29.2982 110.045 29.0273 110.045 27.9823C110.045 27.2857 109.622 27.0535 108.813 26.6277C108.005 26.202 108.005 25.5827 108.005 24.3829V5.92157C108.005 4.33475 108.044 3.83161 109.545 3.83161C113.932 3.83161 114.201 7.04396 115.972 7.04396C116.895 7.04396 117.242 6.46342 117.242 5.57324C117.242 5.14751 117.126 4.72178 116.895 3.36717C116.472 0.967577 116.087 0.967577 114.355 0.967577H94.6509C92.9191 0.967577 92.5342 0.967577 92.1109 3.36717C91.88 4.72178 91.7645 5.14751 91.7645 5.57324C91.7645 6.46342 92.1109 7.04396 93.0345 7.04396C94.8049 7.04396 95.0742 3.83161 99.4615 3.83161C100.962 3.83161 101.001 4.33475 101.001 5.92157V24.3829Z" fill="white"/>
<path d="M122.911 22.6413C132.647 21.635 135.38 18.8871 135.38 16.0231C135.38 11.9593 130.916 10.3724 127.49 10.3724C121.487 10.3724 115.906 14.2427 115.906 20.7449C115.906 26.4342 121.025 29.8788 126.259 29.8788C128.645 29.8788 130.646 29.4531 132.647 28.2533C133.687 27.6727 135.765 26.0472 135.765 24.6539C135.765 24.0733 135.187 23.6089 134.649 23.6089C133.879 23.6089 133.61 23.9959 133.071 24.4604C131.531 25.8537 129.954 26.7825 127.875 26.7825C125.374 26.7825 123.45 25.0796 122.911 22.6413ZM122.564 20.0482C122.372 17.339 123.834 13.0816 127.067 13.0816C128.607 13.0816 129.376 14.1266 129.376 15.5973C129.376 18.8097 125.104 19.8547 122.564 20.0482Z" fill="white"/>
<path d="M140.52 28.8725C142.137 29.6079 143.792 29.8788 145.6 29.8788C150.565 29.8788 154.644 27.2083 154.644 23.1832C154.644 16.2166 144.407 18.6936 144.407 15.1716C144.407 13.6235 146.024 13.0042 147.332 13.0042C151.065 13.0042 150.911 16.3327 152.643 16.3327C153.759 16.3327 153.798 15.2877 153.798 14.4363C153.798 13.5848 153.798 12.3463 152.99 11.8431C151.489 10.8369 148.679 10.3724 146.909 10.3724C142.906 10.3724 138.096 12.1528 138.096 16.952C138.096 23.9185 148.102 20.8997 148.102 24.8474C148.102 26.5116 146.139 27.1309 144.831 27.1309C142.906 27.1309 142.098 26.2407 140.867 24.8861C140.328 24.2668 139.982 23.7637 139.096 23.7637C138.173 23.7637 137.48 24.6152 137.48 25.544C137.48 27.1309 139.212 28.292 140.52 28.8725Z" fill="white"/>
<path d="M165.189 13.7396H167.422C168.499 13.7396 169.731 13.5848 169.731 12.2302C169.731 10.7208 168.499 10.6821 167.345 10.6821H165.189V6.03768C165.189 4.41215 164.92 4.17993 163.15 4.17993C161.61 4.17993 161.302 4.68307 161.033 6.11509C160.879 7.08267 160.456 8.8243 159.955 9.63707C159.34 10.5659 158.416 10.6821 157.377 10.8369C156.53 10.9917 155.837 11.2239 155.837 12.2302C155.837 13.7396 157.031 13.7396 158.147 13.7396H158.916V26.3181C158.916 28.9499 159.724 29.2982 162.149 29.2982H167.422C168.422 29.2982 170 29.2208 170 27.8275C170 26.3568 168.768 26.3181 167.383 26.3181C165.382 26.3181 165.189 25.3505 165.189 23.6089V13.7396Z" fill="white"/>
</svg>
