<svg width="170" height="20" viewBox="0 0 170 20" fill="none" xmlns="http://www.w3.org/2000/svg">
<path d="M0 18.8287H7.18313V12.2807H17.5248V7.84741H7.18313V5.07024H18.4163V0.636964H0V18.8287Z" fill="white"/>
<path d="M20.2732 18.8287H27.4563V13.2234H32.5508C33.8753 13.2234 34.3338 14.0387 34.4102 15.3891C34.5376 17.5038 34.5376 18.2936 34.7923 18.8287H42.6377C42.1792 18.2682 41.8226 17.5038 41.7462 16.6885L41.4405 12.7138C41.3132 11.1341 40.4471 10.2169 39.3773 9.91117V9.86021C41.466 9.24873 42.1792 7.41427 42.1792 5.7072C42.1792 3.71987 41.0584 1.96185 39.7084 1.29941C38.715 0.815315 37.4669 0.636964 35.4036 0.636964H20.2732V18.8287ZM27.4563 5.22311H32.4489C33.6461 5.22311 34.5376 5.55433 34.5376 6.93018C34.5376 8.07671 33.9517 8.63724 32.5508 8.63724H27.4563V5.22311Z" fill="white"/>
<path d="M44.7752 18.8287H64.1085V14.3954H51.9583V11.9495H63.2425V7.51618H51.9583V5.07024H64.1085V0.636964H44.7752V18.8287Z" fill="white"/>
<path d="M66.4663 18.8287H85.7996V14.3954H73.6494V11.9495H84.9335V7.51618H73.6494V5.07024H85.7996V0.636964H66.4663V18.8287Z" fill="white"/>
<path d="M100.435 12.3316C101.403 12.4845 101.734 13.0196 101.734 13.5546C101.734 14.4209 101.123 15.0324 98.8811 15.0324C97.7603 15.0324 96.9707 14.905 96.4358 14.6502C95.9263 14.3699 95.6971 13.9623 95.6716 13.3508H87.0111C87.0366 18.7013 93.0735 19.4656 98.6009 19.4656C106.676 19.4656 110.293 17.3764 110.293 12.9431C110.293 9.86021 108.051 8.17863 104.434 7.64358L95.8499 6.36965C95.1367 6.26773 94.9075 5.93651 94.9075 5.42694C94.9075 4.66258 95.6461 4.12753 97.7858 4.12753C98.5754 4.12753 99.3905 4.22945 100.027 4.50971C100.69 4.7645 101.123 5.22311 101.123 5.96199H109.477C109.223 2.11472 105.886 0 97.7858 0C91.8763 0 87.2658 1.27393 87.2658 5.98747C87.2658 8.53533 88.7177 10.5736 92.2329 11.1087L100.435 12.3316Z" fill="white"/>
<path d="M112.659 18.8287H119.842V13.1724H127.535C132.629 13.1724 134.463 10.4717 134.463 6.98113C134.463 2.93004 132.578 0.636964 127.484 0.636964H112.659V18.8287ZM119.842 4.91737H124.478C126.287 4.91737 126.975 5.4779 126.975 6.85374C126.975 8.17863 126.287 8.73916 124.478 8.73916H119.842V4.91737Z" fill="white"/>
<path d="M136.79 18.8287H143.973V0.636964H136.79V18.8287Z" fill="white"/>
<path d="M147.559 18.8287H154.437V8.63724H154.487L162.129 18.8287H170V0.636964H163.123V10.7265H163.046L155.761 0.636964H147.559V18.8287Z" fill="white"/>
</svg>
