<svg id="Layer_1" data-name="Layer 1" xmlns="http://www.w3.org/2000/svg" xmlns:xlink="http://www.w3.org/1999/xlink" viewBox="0 0 96.88 33.99"><defs><style>.cls-1{fill:#fff;fill-rule:evenodd;}.cls-2{mask:url(#mask);}</style><mask id="mask" x="0" y="0" width="99.99" height="33.99" maskUnits="userSpaceOnUse"><g id="mask-2"><polygon id="path-1" class="cls-1" points="0 0 99.99 0 99.99 33.99 0 33.99 0 0"/></g></mask></defs><g id="reign-logo"><path id="Fill-1" class="cls-1" d="M36.58,5.26l-.08,0c-1-.3-1.79.72-2.55,1.41A5.1,5.1,0,0,1,31,7.92a22.09,22.09,0,0,1-3.14-.21A3.87,3.87,0,0,0,25,8.53a4.79,4.79,0,0,0-1.12,3A76.43,76.43,0,0,0,23.25,24c.05,1.26.2,2.69,1.19,3.47a4.48,4.48,0,0,0,2.38.73l5.38.59a5.65,5.65,0,0,0,2.17,0,3,3,0,0,0,2-3.1.29.29,0,0,0,0-.1c-.51-1.28-2.27-1.45-3.61-1.12s-2.77,1-4.08.47c-1.58-.61-2.16-2.73-1.58-4.34a4.56,4.56,0,0,1,2.59-2.68c.53-.22,1.1-.33,1.62-.57a3.55,3.55,0,0,0,1.74-1.8.8.8,0,0,0,0-.55h0a.81.81,0,0,0-.3-.46,3.62,3.62,0,0,0-3.8-.28,1.36,1.36,0,0,1-2-1.37v0a2.42,2.42,0,0,1,1.34-2,2.91,2.91,0,0,1,1.1-.12l2.28,0a1.76,1.76,0,0,0,.64-.11l1.56-.53a6.13,6.13,0,0,0,3-1.78c.71-.94.66-2.55-.37-3.08"/><g id="Group-8"><g class="cls-2"><path id="Fill-2" class="cls-1" d="M45.87,9a1.68,1.68,0,0,0-2.95-.13A9.35,9.35,0,0,0,42,13.08a87.9,87.9,0,0,1-2,14.08,9.6,9.6,0,0,0-.38,3.18,3.08,3.08,0,0,0,1.65,2.53,1.85,1.85,0,0,0,2.54-1.53c.31-2.7.61-5.4.92-8.09l1.32-11.51a5.43,5.43,0,0,0-.14-2.66s0-.07,0-.11"/></g><g class="cls-2"><path id="Fill-4" class="cls-1" d="M95.37,22.47l1.29-7.9a7.47,7.47,0,0,0,0-3.58,2.9,2.9,0,0,0-2.24-2,2.07,2.07,0,0,0-2.26,1.92,86.93,86.93,0,0,1-2,13.13c-.18,1-.35,1.21-.59.89-.55-1.31-1.25-3.12-1.8-4.43-.62-2.38-1.23-4.75-1.85-7.12a8.55,8.55,0,0,0-.66-1.92,8.38,8.38,0,0,0-.65-1,1.76,1.76,0,0,0-2.11-.66,8,8,0,0,0-3.26,3,40.72,40.72,0,0,0-3.81,6.79L74.58,22a11.59,11.59,0,0,0-.74,2.89c-.14,1.77.54,3.59.25,5.31a1.37,1.37,0,0,0,.44,1.27l0,0a2.47,2.47,0,0,0,2.78.29,2.55,2.55,0,0,0,1.23-2.54,14.85,14.85,0,0,1,2.28-10.48c.21-.31.45-.64,1-.55a1.21,1.21,0,0,1,.9.81c1,2.76,1.9,5.51,2.84,8.27a10,10,0,0,1,.59,2.27c.13,1.36-.24,2.93.82,3.9a2.31,2.31,0,0,0,1.86.52,4.93,4.93,0,0,0,3-2.05,14.76,14.76,0,0,0,3.55-7.78c.07,0,.14-.2.15-.87,0-.28-.19-.52-.14-.79"/></g><g class="cls-2"><path id="Fill-5" class="cls-1" d="M57.62,8.82A11.07,11.07,0,0,1,59,5.27a3.72,3.72,0,0,1,3.19-1.74c1.94.16,3.09,2.23,3.77,4.08A45.37,45.37,0,0,1,67.35,12a7.5,7.5,0,0,0,.82,2.22,2.22,2.22,0,0,0,2,1.11,2.25,2.25,0,0,0,1.8-2.23,6.69,6.69,0,0,0-.83-3l-2.28-5C67.87,3.14,66.65.85,64.61.11a2,2,0,0,0-1.15,0c-2.36.64-5,.82-6.78,2.44C55.15,3.9,54.54,6,54,8a34.49,34.49,0,0,0-1.63,9.79c0,.87.12,1.74.21,2.61.15,1.48.31,3,.46,4.45a8,8,0,0,0,1.08,3.83,5.19,5.19,0,0,0,3.63,1.95,13.63,13.63,0,0,0,4.35-.41c1.91-.41,3.79-.89,5.65-1.47a6.84,6.84,0,0,0,3.08-1.59,3.81,3.81,0,0,0,.79-3.83,2.22,2.22,0,0,0-.67-.92l-9.78-8a1.71,1.71,0,0,0-2.46.3,3.2,3.2,0,0,0-.38,2.45,6.09,6.09,0,0,0,5,4.79.34.34,0,0,1,.29.29.33.33,0,0,0,.24.29,3.45,3.45,0,0,1,1.95,1.1,1.49,1.49,0,0,1,.28,1.24c-.15.66-.68.83-1.18,1a15.48,15.48,0,0,1-4.59.92,2.86,2.86,0,0,1-1.89-.56,3.45,3.45,0,0,1-.9-1.9,30.36,30.36,0,0,1-.53-13c.17-.84.38-1.65.6-2.47"/></g><g class="cls-2"><path id="Fill-6" class="cls-1" d="M6.13,13.19A1.7,1.7,0,0,1,5.07,11,12.48,12.48,0,0,1,7.45,6.44a2,2,0,0,1,.21-.19,1.07,1.07,0,0,1,.9-.49s.63-.08.67-.07h0c.65-.07.64.2,1.27.31a4.65,4.65,0,0,1,3.1,2.57l.2.5a1.49,1.49,0,0,1,.1,1,2.17,2.17,0,0,0-.18.79,2.75,2.75,0,0,1-.3,1.45,3.15,3.15,0,0,1-2.28,1.2,11.29,11.29,0,0,1-2.9.13A9.44,9.44,0,0,1,6.13,13.19Zm9.59,11.2a1.74,1.74,0,0,1-1-.59,2.57,2.57,0,0,0-.53-.45A22.38,22.38,0,0,1,9.51,18.8a2.44,2.44,0,0,1-.66-1.4,1,1,0,0,1,1.11-1,6.17,6.17,0,0,0,6.32-2.95,9.32,9.32,0,0,0,.81-2.61A6.2,6.2,0,0,0,17,7a5,5,0,0,0-1.23-1.51,9.37,9.37,0,0,0-5.23-2.26A7.17,7.17,0,0,0,3.83,6.07a10,10,0,0,0-1,2.06A43.77,43.77,0,0,0,.58,30.74a4,4,0,0,0,.26,1,1.86,1.86,0,0,0,2.58.71,8.56,8.56,0,0,0,0-3.67,42.32,42.32,0,0,1-.12-9.14c0-.41.09-.84.63-1a1.16,1.16,0,0,1,.8,0,3.12,3.12,0,0,1,1.29,1.05A72.37,72.37,0,0,0,16.88,29.85a6,6,0,0,0,2.54,1.34A2.17,2.17,0,0,0,21.83,30a2.83,2.83,0,0,0-.93-2.77,9.58,9.58,0,0,0-5.18-2.88Z"/></g></g></g></svg>