<svg id="Layer_1" data-name="Layer 1" xmlns="http://www.w3.org/2000/svg" viewBox="0 0 88.59 8.88"><defs><style>.cls-1{fill:#fff;}</style></defs><path class="cls-1" d="M2.07,2.58H0V.13H7.36V2.58H5.29V8.71H2.07Z"/><path class="cls-1" d="M8.27.13h3.2v3h1.95v-3h3.2V8.71h-3.2V5.55H11.47V8.71H8.27Z"/><path class="cls-1" d="M18.05.13h3.22V8.71H18.05Z"/><path class="cls-1" d="M22.7.13h3.77c2.55,0,3.74,1,3.74,2.89v0A2.31,2.31,0,0,1,29,5.29l1.76,3.42H27.39L26.06,6h-.18V8.71H22.7ZM26.24,4c.63,0,.9-.25.9-.75v0c0-.47-.27-.67-.87-.67h-.39V4Z"/><path class="cls-1" d="M31.5.13h3.55c3.11,0,4.72,1.37,4.72,4.18v.08c0,2.83-1.67,4.32-4.71,4.32H31.5ZM35,6.27c1.08,0,1.49-.48,1.49-1.81V4.37c0-1.46-.48-1.8-1.51-1.8H34.7v3.7Z"/><path class="cls-1" d="M40,5.92h3c0,.41.26.74.9.74s.66-.2.66-.46-.26-.44-1-.53c-2.55-.27-3.43-1-3.43-2.8C40.21,1.2,41.54,0,43.82,0s3.45.88,3.6,2.84h-3a.61.61,0,0,0-.66-.62c-.38,0-.58.16-.58.41s.23.44,1,.51c2.13.21,3.48.72,3.48,2.71,0,1.63-1.25,3-3.72,3S40.07,8,40,5.92Z"/><path class="cls-1" d="M48.54.13h3.69c2.71,0,3.67,1.21,3.67,3.06v.05c0,1.77-1.12,2.88-3.51,2.88h-.67V8.71H48.54ZM52,4c.57,0,.86-.26.86-.76v0c0-.49-.27-.71-.85-.71h-.32V4Z"/><path class="cls-1" d="M56.79.13h3.77c2.56,0,3.74,1,3.74,2.89v0A2.31,2.31,0,0,1,63,5.29l1.77,3.42H61.48L60.15,6H60V8.71H56.79ZM60.33,4c.63,0,.9-.25.9-.75v0c0-.47-.27-.67-.87-.67H60V4Z"/><path class="cls-1" d="M65.63.13h3.22V8.71H65.63Z"/><path class="cls-1" d="M70.28.13h3.56l1.86,4v-4h2.83V8.71h-3L73.12,4V8.71H70.28Z"/><path class="cls-1" d="M79.47,4.47V4.38A4.35,4.35,0,0,1,84.14,0c2.19,0,4.15,1,4.26,3.38H85.24c0-.51-.36-.87-1.09-.87s-1.35.67-1.35,1.93v.09c0,1,.25,1.93,1.46,1.93.86,0,1.16-.37,1.25-.69h-1.2V3.83h4.28V5c0,2-1.37,3.85-4.45,3.85S79.47,7.08,79.47,4.47Z"/></svg>