<svg width="170" height="33" viewBox="0 0 170 33" fill="none" xmlns="http://www.w3.org/2000/svg">
<path d="M0 25.7402H10.8593C18.5352 25.7402 23.2397 21.1978 23.2397 12.7619C23.2397 4.79474 18.6059 0 10.8593 0H0V25.7402ZM6.57928 5.76811H9.69205C14.1844 5.76811 16.6604 8.0393 16.6604 12.7259C16.6604 17.8811 14.6796 19.8639 9.69205 19.9721H6.57928V5.76811Z" fill="white"/>
<path d="M44.8448 7.02988H38.8315V17.052C38.8315 20.3686 36.8506 21.2338 35.5419 21.2338C33.6317 21.2338 32.5706 20.3686 32.5706 17.8811V7.02988H26.5573V18.2777C26.5573 23.1806 28.0783 26.2809 33.3488 26.2809C35.4711 26.2809 37.8057 25.0913 38.9376 23.1806H39.0084V25.7402H44.8448V7.02988Z" fill="white"/>
<path d="M53.896 20.3686C53.896 18.8905 55.0279 18.3137 56.3721 17.9893C57.6809 17.6288 59.2373 17.5206 60.0862 16.9799C60.2277 20.8373 59.2726 22.4956 56.4075 22.4956C55.0633 22.4956 53.896 21.8827 53.896 20.3686ZM54.2497 12.798C54.5327 11.2118 55.5939 10.4547 57.2564 10.4547C58.4944 10.4547 60.1569 10.9955 60.1569 12.4014C60.1569 13.555 59.591 13.9156 58.5652 14.1319C54.3912 14.9971 47.8827 14.5284 47.8827 20.621C47.8827 24.4784 50.6417 26.2809 54.1436 26.2809C56.3367 26.2809 58.6359 25.632 60.1923 23.9737C60.2631 24.5866 60.3338 25.1634 60.546 25.7402H66.5947C65.8873 24.2621 65.8873 22.5317 65.8873 20.9454V12.7619C65.8873 7.46249 61.678 6.48912 57.3271 6.48912C55.2402 6.48912 53.1178 6.84963 51.4907 7.78694C49.8635 8.76031 48.7316 10.3465 48.6255 12.798H54.2497Z" fill="white"/>
<path d="M70.0532 25.7402H76.0665V0H70.0532V25.7402Z" fill="white"/>
<path d="M79.2464 19.5755C79.4233 24.8029 83.8802 26.2809 88.2311 26.2809C92.3696 26.2809 97.0388 24.6226 97.0388 19.6116C97.0388 18.0614 96.0837 15.3215 92.3696 14.5645C89.6106 13.9516 85.5781 13.6271 85.5781 11.8607C85.5781 10.5628 87.1699 10.4547 88.1603 10.4547C88.9031 10.4547 89.5752 10.5989 90.0704 10.9233C90.5656 11.2478 90.8486 11.7525 90.8486 12.5456H96.4021C96.1899 7.67879 91.9805 6.48912 87.9481 6.48912C84.3401 6.48912 79.5648 7.71484 79.5648 12.2212C79.5648 17.2683 84.3047 17.3764 88.0896 18.3498C89.1507 18.6021 91.0255 18.8905 91.0255 20.3326C91.0255 21.8106 89.363 22.3154 88.1957 22.3154C87.3467 22.3154 86.5332 22.0991 85.9672 21.6664C85.3659 21.1978 84.9768 20.5128 84.9768 19.5755H79.2464Z" fill="white"/>
<path d="M109.443 11.1757C112.096 11.1757 113.015 13.8074 113.015 16.1867C113.015 18.7463 112.096 21.5943 109.407 21.5943C106.684 21.5943 105.764 19.4674 105.764 16.1867C105.764 12.3293 107.816 11.1757 109.443 11.1757ZM99.9628 32.013H105.976V23.7213H106.047C107.285 25.4157 109.018 26.2809 111.282 26.2809C116.482 26.2809 119.029 21.6664 119.029 16.7996C119.029 11.5362 116.588 6.48912 110.822 6.48912C108.7 6.48912 106.931 7.42644 105.764 9.19292H105.693V7.02988H99.9628V32.013Z" fill="white"/>
<path d="M127.372 16.403C127.372 14.0237 128.221 11.1757 131.016 11.1757C133.81 11.1757 134.694 14.0237 134.694 16.403C134.694 18.7824 133.81 21.5943 131.016 21.5943C128.221 21.5943 127.372 18.7824 127.372 16.403ZM121.359 16.403C121.359 22.027 125.321 26.2809 131.016 26.2809C136.711 26.2809 140.708 22.027 140.708 16.403C140.708 10.7791 136.711 6.48912 131.016 6.48912C125.321 6.48912 121.359 10.7791 121.359 16.403Z" fill="white"/>
<path d="M144.08 25.7402H150.093V16.4752C150.093 14.1319 151.649 12.0409 154.621 12.0409C155.434 12.0409 156.142 12.1851 156.92 12.4014V6.81357C156.46 6.70542 155.965 6.66937 155.505 6.66937C152.923 6.66937 150.871 7.93115 149.987 10.3105H149.916V7.02988H144.08V25.7402Z" fill="white"/>
<path d="M170 7.02988H166.286V1.36993H160.273V7.02988H157.231V10.9955H160.273V19.3232C160.273 24.4063 161.581 25.9204 166.71 25.9204C167.807 25.9204 168.903 25.7762 170 25.7402V21.2338C169.469 21.2338 168.939 21.3059 168.444 21.3059C167.135 21.3059 166.286 20.9815 166.286 19.5034V10.9955H170V7.02988Z" fill="white"/>
</svg>
