<svg id="Layer_1" data-name="Layer 1" xmlns="http://www.w3.org/2000/svg" viewBox="0 0 45.1 14.48"><defs><style>.cls-1{fill:#fff;}</style></defs><path class="cls-1" d="M5.3,0C8.1,0,9.72,1.62,9.72,3.8a3.17,3.17,0,0,1-2.08,3,3.32,3.32,0,0,1,2.52,3.32c0,2.32-1.76,4-4.44,4H0V0ZM4.8,5.68c1.1,0,1.82-.58,1.82-1.54S6,2.62,4.76,2.62H3.08V5.68Zm.26,5.92c1.22,0,2-.64,2-1.66s-.72-1.66-2-1.66h-2V11.6Z"/><path class="cls-1" d="M21.29,11.32a4.47,4.47,0,0,1-4.59,3.16,5.06,5.06,0,0,1-5.18-5.3,5,5,0,0,1,5-5.24c3.08,0,5,1.9,5,5.1a6.34,6.34,0,0,1-.06.94H14.48a2.15,2.15,0,0,0,2.26,1.92,1.94,1.94,0,0,0,2-1.3ZM18.52,8a1.78,1.78,0,0,0-2-1.68,1.89,1.89,0,0,0-2,1.68Z"/><path class="cls-1" d="M27.1,4.24H29V6.9H27.1v3.72c0,.82.44,1,1.1,1a3.75,3.75,0,0,0,.8-.1v2.52a3.62,3.62,0,0,1-1.58.28,3,3,0,0,1-3.32-3.2V6.9H22.34V4.24h.5a1.46,1.46,0,0,0,1.54-1.62V1.34H27.1Z"/><path class="cls-1" d="M34.84,4.24h1.94V6.9H34.84v3.72c0,.82.44,1,1.1,1a3.75,3.75,0,0,0,.8-.1v2.52a3.62,3.62,0,0,1-1.58.28,3,3,0,0,1-3.32-3.2V6.9H30.08V4.24h.5a1.46,1.46,0,0,0,1.54-1.62V1.34h2.72Z"/><path class="cls-1" d="M45.1,7.24a4.13,4.13,0,0,0-1-.1c-1.22,0-2.32.72-2.32,2.7v4.34h-3V4.24h2.94V5.58A2.81,2.81,0,0,1,44.3,4.14a3,3,0,0,1,.8.1Z"/></svg>